<svg width="812" height="819" viewBox="0 0 812 819" fill="none" xmlns="http://www.w3.org/2000/svg">
<circle cx="406" cy="410" r="406" fill="black"/>
<rect width="812" height="819" rx="72" fill="black"/>
<path d="M403.669 566H256.688H249.796C225.176 566 209.779 539.359 222.069 518.026L365.515 269.026C371.227 259.111 381.799 253 393.243 253H625C642.673 253 657 267.327 657 285V387.692C657 405.365 642.673 419.692 625 419.692H430.112C405.492 419.692 390.095 446.332 402.384 467.666L431.397 518.026C443.687 539.36 428.289 566 403.669 566Z" fill="white"/>
<path d="M209.854 390.108L151.483 331.61C131.358 311.441 145.643 277.007 174.136 277.007H266.207C290.827 277.007 306.225 303.648 293.935 324.981L260.234 383.48C249.718 401.735 224.735 405.022 209.854 390.108Z" fill="white"/>
<path d="M572.568 520.407L537.413 459.383C531.984 449.959 521.936 444.152 511.061 444.152C487.662 444.152 473.029 469.47 484.709 489.745L519.864 550.769C525.293 560.193 535.341 566 546.216 566C569.614 566 584.248 540.682 572.568 520.407Z" fill="white"/>
<path d="M403.669 566H256.688H249.796C225.176 566 209.779 539.359 222.069 518.026L365.515 269.026C371.227 259.111 381.799 253 393.243 253H625C642.673 253 657 267.327 657 285V387.692C657 405.365 642.673 419.692 625 419.692H430.112C405.492 419.692 390.095 446.332 402.384 467.666L431.397 518.026C443.687 539.36 428.289 566 403.669 566Z" stroke="white"/>
<path d="M209.854 390.108L151.483 331.61C131.358 311.441 145.643 277.007 174.136 277.007H266.207C290.827 277.007 306.225 303.648 293.935 324.981L260.234 383.48C249.718 401.735 224.735 405.022 209.854 390.108Z" stroke="white"/>
<path d="M572.568 520.407L537.413 459.383C531.984 449.959 521.936 444.152 511.061 444.152C487.662 444.152 473.029 469.47 484.709 489.745L519.864 550.769C525.293 560.193 535.341 566 546.216 566C569.614 566 584.248 540.682 572.568 520.407Z" stroke="white"/>
</svg>
